<svg width="523" height="140" viewBox="0 0 523 140" fill="none" xmlns="http://www.w3.org/2000/svg">
<g clip-path="url(#clip0_20_145)">
<path d="M115.645 21.8738C91.7561 21.8738 73.4546 15.0492 57.9777 0C42.5038 15.0492 24.2023 21.8738 0.316235 21.8738C0.316235 61.0646 -7.79452 117.203 57.9777 140C123.75 117.203 115.645 61.0646 115.645 21.8738Z" fill="#F7941E"/>
<path d="M89.8368 42.9046C89.8368 45.8554 87.4461 48.2461 84.4953 48.2461H63.963V102.225C63.963 105.582 61.2399 108.305 57.883 108.305C54.5261 108.305 51.803 105.582 51.803 102.225V48.2461H31.2707C28.32 48.2461 25.9292 45.8554 25.9292 42.9046C25.9292 39.9538 28.32 37.563 31.2707 37.563H84.4922C87.443 37.563 89.8368 39.9538 89.8368 42.9046Z" fill="white"/>
</g>
<path d="M203.171 48.7H182.243V107.5H169.331V48.7H148.403V38.092H203.171V48.7ZM230.578 77.212C230.578 75.676 230.354 74.236 229.906 72.892C229.49 71.516 228.85 70.316 227.986 69.292C227.122 68.268 226.018 67.468 224.674 66.892C223.362 66.284 221.826 65.98 220.066 65.98C216.642 65.98 213.938 66.956 211.954 68.908C210.002 70.86 208.754 73.628 208.21 77.212H230.578ZM207.97 84.364C208.162 86.892 208.61 89.084 209.314 90.94C210.018 92.764 210.946 94.284 212.098 95.5C213.25 96.684 214.61 97.58 216.178 98.188C217.778 98.764 219.538 99.052 221.458 99.052C223.378 99.052 225.026 98.828 226.402 98.38C227.81 97.932 229.026 97.436 230.05 96.892C231.106 96.348 232.018 95.852 232.786 95.404C233.586 94.956 234.354 94.732 235.09 94.732C236.082 94.732 236.818 95.1 237.298 95.836L240.706 100.156C239.394 101.692 237.922 102.988 236.29 104.044C234.658 105.068 232.946 105.9 231.154 106.54C229.394 107.148 227.586 107.58 225.73 107.836C223.906 108.092 222.13 108.22 220.402 108.22C216.978 108.22 213.794 107.66 210.85 106.54C207.906 105.388 205.346 103.708 203.17 101.5C200.994 99.26 199.282 96.508 198.034 93.244C196.786 89.948 196.162 86.14 196.162 81.82C196.162 78.46 196.706 75.308 197.794 72.364C198.882 69.388 200.434 66.812 202.45 64.636C204.498 62.428 206.978 60.684 209.89 59.404C212.834 58.124 216.146 57.484 219.826 57.484C222.93 57.484 225.794 57.98 228.418 58.972C231.042 59.964 233.298 61.42 235.186 63.34C237.074 65.228 238.546 67.564 239.602 70.348C240.69 73.1 241.234 76.252 241.234 79.804C241.234 81.596 241.042 82.812 240.658 83.452C240.274 84.06 239.538 84.364 238.45 84.364H207.97ZM261.316 66.796C262.852 63.852 264.676 61.548 266.788 59.884C268.9 58.188 271.396 57.34 274.276 57.34C276.548 57.34 278.372 57.836 279.748 58.828L278.98 67.708C278.82 68.284 278.58 68.7 278.26 68.956C277.972 69.18 277.572 69.292 277.06 69.292C276.58 69.292 275.86 69.212 274.9 69.052C273.972 68.892 273.06 68.812 272.164 68.812C270.852 68.812 269.684 69.004 268.66 69.388C267.636 69.772 266.708 70.332 265.876 71.068C265.076 71.772 264.356 72.636 263.716 73.66C263.108 74.684 262.532 75.852 261.988 77.164V107.5H250.132V58.252H257.092C258.308 58.252 259.156 58.476 259.636 58.924C260.116 59.34 260.436 60.108 260.596 61.228L261.316 66.796ZM285.944 107.5V58.252H293.192C294.728 58.252 295.736 58.972 296.216 60.412L296.984 64.06C297.848 63.1 298.744 62.22 299.672 61.42C300.632 60.62 301.64 59.932 302.696 59.356C303.784 58.78 304.936 58.332 306.152 58.012C307.4 57.66 308.76 57.484 310.232 57.484C313.336 57.484 315.88 58.332 317.864 60.028C319.88 61.692 321.384 63.916 322.376 66.7C323.144 65.068 324.104 63.676 325.256 62.524C326.408 61.34 327.672 60.38 329.048 59.644C330.424 58.908 331.88 58.364 333.416 58.012C334.984 57.66 336.552 57.484 338.12 57.484C340.84 57.484 343.256 57.9 345.368 58.732C347.48 59.564 349.256 60.78 350.696 62.38C352.136 63.98 353.224 65.932 353.96 68.236C354.728 70.54 355.112 73.18 355.112 76.156V107.5H343.256V76.156C343.256 73.02 342.568 70.668 341.192 69.1C339.816 67.5 337.8 66.7 335.144 66.7C333.928 66.7 332.792 66.908 331.736 67.324C330.712 67.74 329.8 68.348 329 69.148C328.232 69.916 327.624 70.892 327.176 72.076C326.728 73.26 326.504 74.62 326.504 76.156V107.5H314.6V76.156C314.6 72.86 313.928 70.46 312.584 68.956C311.272 67.452 309.336 66.7 306.776 66.7C305.048 66.7 303.432 67.132 301.928 67.996C300.456 68.828 299.08 69.98 297.8 71.452V107.5H285.944ZM378.67 58.252V107.5H366.766V58.252H378.67ZM380.302 43.9C380.302 44.924 380.094 45.884 379.678 46.78C379.262 47.676 378.702 48.46 377.998 49.132C377.326 49.804 376.526 50.348 375.598 50.764C374.67 51.148 373.678 51.34 372.622 51.34C371.598 51.34 370.622 51.148 369.694 50.764C368.798 50.348 368.014 49.804 367.342 49.132C366.67 48.46 366.126 47.676 365.71 46.78C365.326 45.884 365.134 44.924 365.134 43.9C365.134 42.844 365.326 41.852 365.71 40.924C366.126 39.996 366.67 39.196 367.342 38.524C368.014 37.852 368.798 37.324 369.694 36.94C370.622 36.524 371.598 36.316 372.622 36.316C373.678 36.316 374.67 36.524 375.598 36.94C376.526 37.324 377.326 37.852 377.998 38.524C378.702 39.196 379.262 39.996 379.678 40.924C380.094 41.852 380.302 42.844 380.302 43.9ZM401.845 64.3C402.837 63.308 403.877 62.396 404.965 61.564C406.085 60.7 407.253 59.98 408.469 59.404C409.717 58.796 411.045 58.332 412.453 58.012C413.861 57.66 415.397 57.484 417.061 57.484C419.749 57.484 422.133 57.948 424.213 58.876C426.293 59.772 428.021 61.052 429.397 62.716C430.805 64.348 431.861 66.316 432.565 68.62C433.301 70.892 433.669 73.404 433.669 76.156V107.5H421.813V76.156C421.813 73.148 421.125 70.828 419.749 69.196C418.373 67.532 416.277 66.7 413.461 66.7C411.413 66.7 409.493 67.164 407.701 68.092C405.909 69.02 404.213 70.284 402.613 71.884V107.5H390.757V58.252H398.005C399.541 58.252 400.549 58.972 401.029 60.412L401.845 64.3ZM470.96 86.476C467.536 86.636 464.656 86.94 462.32 87.388C459.984 87.804 458.112 88.348 456.704 89.02C455.296 89.692 454.288 90.476 453.68 91.372C453.072 92.268 452.768 93.244 452.768 94.3C452.768 96.38 453.376 97.868 454.592 98.764C455.84 99.66 457.456 100.108 459.44 100.108C461.872 100.108 463.968 99.676 465.728 98.812C467.52 97.916 469.264 96.572 470.96 94.78V86.476ZM443.792 65.116C449.456 59.932 456.272 57.34 464.24 57.34C467.12 57.34 469.696 57.82 471.968 58.78C474.24 59.708 476.16 61.02 477.728 62.716C479.296 64.38 480.48 66.38 481.28 68.716C482.112 71.052 482.528 73.612 482.528 76.396V107.5H477.152C476.032 107.5 475.168 107.34 474.56 107.02C473.952 106.668 473.472 105.98 473.12 104.956L472.064 101.404C470.816 102.524 469.6 103.516 468.416 104.38C467.232 105.212 466 105.916 464.72 106.492C463.44 107.068 462.064 107.5 460.592 107.788C459.152 108.108 457.552 108.268 455.792 108.268C453.712 108.268 451.792 107.996 450.032 107.452C448.272 106.876 446.752 106.028 445.472 104.908C444.192 103.788 443.2 102.396 442.496 100.732C441.792 99.068 441.44 97.132 441.44 94.924C441.44 93.676 441.648 92.444 442.064 91.228C442.48 89.98 443.152 88.796 444.08 87.676C445.04 86.556 446.272 85.5 447.776 84.508C449.28 83.516 451.12 82.652 453.296 81.916C455.504 81.18 458.064 80.588 460.976 80.14C463.888 79.66 467.216 79.372 470.96 79.276V76.396C470.96 73.1 470.256 70.668 468.848 69.1C467.44 67.5 465.408 66.7 462.752 66.7C460.832 66.7 459.232 66.924 457.952 67.372C456.704 67.82 455.6 68.332 454.64 68.908C453.68 69.452 452.8 69.948 452 70.396C451.232 70.844 450.368 71.068 449.408 71.068C448.576 71.068 447.872 70.86 447.296 70.444C446.72 69.996 446.256 69.484 445.904 68.908L443.792 65.116ZM505.694 36.172V107.5H493.838V36.172H505.694Z" fill="#343434"/>
<defs>
<clipPath id="clip0_20_145">
<rect width="115.963" height="140" fill="white"/>
</clipPath>
</defs>
</svg>
